<svg width="40" height="18" viewBox="0 0 40 18" fill="none" xmlns="http://www.w3.org/2000/svg">
<path d="M2 7.9C1.39249 7.9 0.9 8.39249 0.9 9C0.9 9.60751 1.39249 10.1 2 10.1V7.9ZM38.7778 9.77782C39.2074 9.34824 39.2074 8.65176 38.7778 8.22218L31.7775 1.22183C31.3479 0.792249 30.6514 0.792249 30.2218 1.22183C29.7922 1.6514 29.7922 2.34788 30.2218 2.77746L36.4444 9L30.2218 15.2225C29.7922 15.6521 29.7922 16.3486 30.2218 16.7782C30.6514 17.2078 31.3479 17.2078 31.7775 16.7782L38.7778 9.77782ZM2 10.1H38V7.9H2V10.1Z" fill="white"/>
</svg>
