<svg width="24" height="24" viewBox="0 0 24 24" fill="none" xmlns="http://www.w3.org/2000/svg">
<path d="M22.3542 5.34401C22.1198 4.2476 21.5334 3.5262 20.4506 3.1751C19.3678 2.82401 17.4075 2.96417 16.0387 3.96213C14.783 4.87667 13.8703 6.51307 13.5075 7.63151C13.4968 7.66473 13.4956 7.70027 13.504 7.73413C13.5124 7.768 13.5301 7.79884 13.5551 7.8232C13.5801 7.84755 13.6114 7.86445 13.6455 7.87199C13.6795 7.87953 13.715 7.87742 13.748 7.86588C14.2528 7.68776 14.7661 7.53307 15.3417 7.56354C16.0448 7.60104 16.4906 8.12604 16.5094 8.74901C16.5234 9.20792 16.5 9.6251 16.3406 10.0465C15.8372 11.3909 15.0464 12.6931 14.1117 13.8317C13.9709 14.001 13.8139 14.1563 13.643 14.2953C13.1644 14.6839 12.7612 14.5812 12.4519 14.0515C12.1987 13.616 12.03 13.1665 11.88 12.6884C11.2987 10.8289 11.092 8.89901 10.7639 6.99214C10.6092 6.07901 10.4358 5.12792 9.92016 4.32682C9.37641 3.49292 8.57906 3.17464 7.57641 3.29557C6.88734 3.37995 5.84625 4.11542 5.33531 4.5326C5.33531 4.5326 2.71031 6.72963 1.5 7.87713L2.49375 9.14276C2.49375 9.14276 3.33328 8.55729 3.78328 8.28542C4.05047 8.12651 4.36453 8.0937 4.58953 8.29479C4.80094 8.4776 5.04 8.71667 5.16656 8.95573C5.43375 9.45682 5.69156 9.98135 5.85563 10.5199C6.47437 12.5951 7.05141 14.6749 7.62797 16.7646C7.92328 17.8324 8.27953 18.8351 8.94047 19.7435C9.84563 20.9899 10.7972 21.2754 12.2648 20.7509C13.4559 20.3248 14.4497 19.5237 15.3586 18.6945C16.9106 17.2798 18.1298 15.6307 19.3673 13.9535C20.3241 12.6565 21.1162 11.344 21.7772 9.87776C22.4292 8.42557 22.687 6.90307 22.3542 5.34401Z" fill="#F0EEEB"/>
</svg>
