<svg width="98" height="92" viewBox="0 0 98 92" fill="none" xmlns="http://www.w3.org/2000/svg">
<path d="M31.5638 92C31.9699 91.5172 32.3507 91.0089 32.7865 90.5557C41.4941 81.4196 46.271 70.6402 46.4317 57.9378C46.4614 55.4135 46.436 52.8891 46.436 50.0598C32.5835 57.9421 22.7335 68.9375 17.7705 84.4777C11.8131 74.1218 5.99965 64.0074 0 53.5752C15.8454 56.7011 30.4933 54.668 44.147 45.7692C30.3918 37.5903 15.8665 35.0617 0.00846214 38.2384C5.98273 27.9291 11.7962 17.8951 17.7663 7.59431C22.5516 23.126 32.9135 33.5285 46.4825 41.5506C47.4007 25.5021 41.786 12.0459 31.6018 0C43.2711 0 54.7162 0 66.6732 0C56.0532 11.9018 51.1494 25.6123 51.5386 41.6438C65.1077 33.5624 75.3807 23.1345 80.2337 7.60702C86.1869 17.8782 92.0046 27.9122 97.9915 38.2469C82.2266 35.1422 67.6209 37.1541 53.9884 45.7861C67.5152 54.6638 82.0954 56.7053 97.9958 53.5583C92.0088 63.9777 86.2038 74.0795 80.2295 84.4735C75.2834 69.0095 65.48 57.9717 51.856 50.1656C51.6613 50.2249 51.4709 50.2885 51.2763 50.3478C51.6148 55.0026 51.8814 59.6659 52.3087 64.3123C53.2268 74.2616 58.0714 82.3599 64.4688 89.7086C65.1246 90.4625 65.7635 91.2334 66.4066 91.9958C54.7966 92 43.1781 92 31.5638 92Z" fill="white"/>
</svg>
