<svg width="406" height="406" viewBox="0 0 406 406" fill="none" xmlns="http://www.w3.org/2000/svg">
<g clip-path="url(#clip0_2_237)">
<path d="M304.319 304.5C248.127 360.632 157.449 360.474 101.208 304.148C45.3453 248.202 45.5355 157.296 101.637 101.302C157.859 45.1879 248.585 45.49 304.928 101.989C360.593 157.798 360.319 248.56 304.319 304.5ZM303.743 303.791C359.37 248.176 359.536 157.93 304.124 102.433C248.195 46.4325 157.967 46.2805 102.136 102.088C46.502 157.698 46.4139 248.045 101.935 303.626C157.743 359.495 247.953 359.569 303.743 303.791Z" fill="#AEAEAE"/>
<path d="M187.502 204.852C188.042 204.312 188.577 203.778 189.117 203.237C202.523 189.832 215.928 176.426 229.328 163.026C231.249 161.105 231.255 161.111 233.23 163.086C237.12 166.976 241.016 170.872 245.146 175.002C230.611 189.536 216.209 203.939 201.585 218.563C208.801 218.551 215.548 218.538 222.938 218.52C222.812 221.155 222.656 223.316 222.62 225.478C222.565 228.941 222.541 232.411 222.631 235.875C222.679 237.76 222.019 238.552 220.056 238.547C203.433 238.481 186.816 238.482 170.193 238.453C167.978 238.447 167.318 237.774 167.318 235.517C167.313 219.111 167.325 202.698 167.302 186.285C167.296 184.442 167.969 183.218 169.926 183.182C175.503 183.067 181.092 183.025 187.035 182.953C186.908 190.463 186.782 197.564 186.662 204.672C186.938 204.732 187.22 204.786 187.502 204.852ZM169.812 185.097C169.685 202.26 169.558 219.411 169.431 236.442C186.504 236.369 203.637 236.296 220.506 236.223C220.506 231.301 220.512 226.084 220.513 220.705C213.069 220.657 205.451 220.604 197.821 220.55C197.767 220.364 197.701 220.178 197.647 219.992C212.763 204.875 227.874 189.765 243.159 174.48C239.839 171.16 236.615 168.093 233.596 164.845C232.173 163.314 231.339 163.453 229.922 164.881C215.826 179.085 201.652 193.212 187.502 207.362C186.938 207.926 186.367 208.496 185.803 209.061C185.635 208.977 185.479 208.892 185.311 208.808C185.251 200.884 185.191 192.96 185.132 185.144C179.699 185.126 174.542 185.108 169.812 185.097Z" fill="#AEAEAE"/>
</g>
<defs>
<clipPath id="clip0_2_237">
<rect width="287" height="287" fill="white" transform="translate(405.879 202.94) rotate(135)"/>
</clipPath>
</defs>
</svg>
